<svg id="svg" version="1.1" xmlns="http://www.w3.org/2000/svg" xmlns:xlink="http://www.w3.org/1999/xlink" width="400" height="316.2222222222222" viewBox="0, 0, 400,316.2222222222222"><g id="svgg"><path id="path0" d="M63.778 0.333 C 63.595 0.553,63.099 0.667,62.319 0.667 C 61.669 0.667,61.076 0.767,61.000 0.889 C 60.924 1.011,60.424 1.111,59.889 1.111 C 59.353 1.111,58.853 1.211,58.778 1.333 C 58.702 1.456,58.375 1.556,58.050 1.556 C 57.725 1.556,57.056 1.695,56.563 1.866 C 56.070 2.037,55.217 2.296,54.667 2.443 C 54.117 2.590,53.493 2.800,53.281 2.911 C 53.069 3.021,52.649 3.111,52.349 3.111 C 52.049 3.111,51.742 3.211,51.667 3.333 C 51.591 3.456,51.285 3.556,50.987 3.556 C 50.689 3.556,50.444 3.656,50.444 3.778 C 50.444 3.900,50.200 4.000,49.902 4.000 C 49.604 4.000,49.298 4.100,49.222 4.222 C 49.147 4.344,48.917 4.444,48.712 4.444 C 48.507 4.444,47.788 4.707,47.114 5.029 C 46.440 5.350,45.689 5.687,45.444 5.778 C 44.787 6.023,42.890 6.885,42.000 7.344 C 41.572 7.564,40.672 8.022,40.000 8.362 C 39.328 8.701,38.728 9.034,38.667 9.101 C 38.606 9.168,38.256 9.369,37.889 9.547 C 37.522 9.725,36.759 10.200,36.192 10.602 C 35.626 11.004,35.090 11.333,35.001 11.333 C 34.767 11.333,30.569 14.254,30.481 14.478 C 30.441 14.582,30.317 14.667,30.206 14.667 C 30.018 14.667,29.816 14.815,28.592 15.853 C 28.328 16.077,27.766 16.527,27.343 16.853 C 26.921 17.178,26.342 17.669,26.056 17.944 C 25.769 18.219,25.480 18.444,25.413 18.444 C 25.037 18.444,17.466 26.379,16.401 27.889 C 16.315 28.011,15.908 28.511,15.497 29.000 C 15.085 29.489,14.508 30.239,14.214 30.667 C 13.919 31.094,13.601 31.544,13.505 31.667 C 13.410 31.789,12.966 32.439,12.518 33.111 C 12.071 33.783,11.621 34.367,11.519 34.407 C 11.417 34.448,11.333 34.673,11.333 34.907 C 11.333 35.142,11.245 35.333,11.136 35.333 C 11.028 35.333,10.774 35.658,10.572 36.056 C 10.370 36.453,9.954 37.178,9.648 37.667 C 9.342 38.156,9.035 38.731,8.965 38.944 C 8.894 39.158,8.749 39.333,8.641 39.333 C 8.533 39.333,8.444 39.533,8.444 39.778 C 8.444 40.022,8.344 40.222,8.222 40.222 C 8.100 40.222,8.000 40.422,8.000 40.667 C 8.000 40.911,7.902 41.111,7.782 41.111 C 7.662 41.111,7.501 41.361,7.425 41.667 C 7.348 41.972,7.196 42.222,7.087 42.222 C 6.978 42.222,6.889 42.369,6.889 42.549 C 6.889 42.728,6.706 43.203,6.483 43.604 C 6.259 44.005,5.937 44.808,5.768 45.389 C 5.598 45.969,5.380 46.444,5.285 46.444 C 5.189 46.444,5.111 46.694,5.111 47.000 C 5.111 47.306,5.019 47.556,4.907 47.556 C 4.794 47.556,4.636 47.854,4.556 48.220 C 4.476 48.585,4.318 48.941,4.205 49.011 C 4.092 49.080,4.000 49.376,4.000 49.667 C 4.000 49.958,3.900 50.258,3.778 50.333 C 3.656 50.409,3.556 50.666,3.556 50.905 C 3.556 51.144,3.465 51.513,3.355 51.725 C 3.245 51.937,3.035 52.561,2.889 53.111 C 2.743 53.661,2.533 54.285,2.423 54.497 C 2.312 54.709,2.222 55.165,2.222 55.510 C 2.222 55.855,2.075 56.331,1.896 56.569 C 1.717 56.806,1.567 57.355,1.563 57.789 C 1.559 58.223,1.466 58.673,1.356 58.789 C 1.162 58.995,1.004 59.851,0.744 62.109 C 0.674 62.719,0.478 63.417,0.308 63.659 C -0.119 64.269,-0.159 251.298,0.268 252.070 C 0.416 252.337,0.611 253.106,0.703 253.778 C 1.063 256.433,1.663 259.086,1.973 259.396 C 2.110 259.532,2.222 259.901,2.222 260.214 C 2.222 260.528,2.422 261.331,2.667 262.000 C 2.911 262.669,3.111 263.394,3.111 263.611 C 3.111 263.828,3.211 264.205,3.333 264.447 C 3.456 264.690,3.656 265.088,3.778 265.330 C 3.900 265.573,4.000 266.015,4.000 266.312 C 4.000 266.609,4.097 266.885,4.216 266.926 C 4.334 266.967,4.466 267.226,4.508 267.503 C 4.550 267.780,4.702 268.125,4.847 268.270 C 4.992 268.415,5.111 268.665,5.111 268.825 C 5.111 269.109,5.212 269.359,5.743 270.386 C 5.884 270.659,6.000 271.034,6.000 271.219 C 6.000 271.404,6.100 271.556,6.222 271.556 C 6.344 271.556,6.444 271.750,6.444 271.987 C 6.444 272.224,6.544 272.480,6.667 272.556 C 6.789 272.631,6.889 272.887,6.889 273.124 C 6.889 273.361,6.964 273.557,7.056 273.558 C 7.147 273.559,7.420 274.009,7.661 274.558 C 7.902 275.107,8.177 275.556,8.272 275.556 C 8.367 275.556,8.444 275.756,8.444 276.000 C 8.444 276.244,8.544 276.444,8.667 276.444 C 8.789 276.444,8.889 276.547,8.889 276.673 C 8.889 276.798,9.439 277.813,10.111 278.928 C 10.783 280.043,11.333 281.041,11.333 281.145 C 11.333 281.248,11.433 281.333,11.556 281.333 C 11.678 281.333,11.778 281.464,11.778 281.625 C 11.778 281.785,11.954 282.110,12.168 282.347 C 12.383 282.584,12.740 283.059,12.961 283.404 C 13.182 283.748,13.499 284.198,13.665 284.404 C 13.832 284.609,14.493 285.478,15.135 286.333 C 15.778 287.189,16.361 287.939,16.432 288.000 C 16.503 288.061,17.007 288.661,17.551 289.333 C 18.096 290.006,18.794 290.816,19.104 291.135 C 19.413 291.454,19.825 291.904,20.019 292.135 C 20.451 292.651,25.768 297.760,26.355 298.223 C 27.775 299.344,29.015 300.351,29.111 300.461 C 29.172 300.531,29.822 301.008,30.556 301.520 C 31.289 302.032,32.339 302.797,32.889 303.220 C 33.439 303.643,34.014 303.992,34.167 303.995 C 34.319 303.998,34.444 304.100,34.444 304.222 C 34.444 304.344,34.551 304.444,34.682 304.444 C 34.813 304.444,35.338 304.730,35.849 305.078 C 36.912 305.803,38.367 306.639,40.444 307.718 C 41.239 308.130,42.039 308.552,42.222 308.654 C 42.406 308.757,43.056 309.064,43.667 309.337 C 44.706 309.802,44.982 309.916,46.278 310.415 C 47.117 310.738,49.466 311.745,50.053 312.033 C 50.265 312.137,50.634 312.222,50.873 312.222 C 51.112 312.222,51.369 312.322,51.444 312.444 C 51.520 312.567,51.870 312.667,52.222 312.667 C 52.574 312.667,52.924 312.767,53.000 312.889 C 53.076 313.011,53.431 313.111,53.791 313.111 C 54.150 313.111,54.444 313.200,54.444 313.309 C 54.444 313.418,54.769 313.559,55.167 313.622 C 56.228 313.791,57.824 314.200,58.333 314.435 C 58.578 314.547,59.178 314.698,59.667 314.770 C 60.156 314.842,61.106 315.005,61.778 315.132 C 62.450 315.259,63.600 315.412,64.333 315.472 C 65.067 315.532,65.982 315.725,66.367 315.902 C 67.437 316.392,332.588 316.386,333.235 315.896 C 333.510 315.688,334.196 315.567,335.122 315.563 C 335.923 315.559,336.673 315.465,336.789 315.355 C 336.905 315.245,337.450 315.100,338.000 315.035 C 339.473 314.858,341.063 314.524,342.444 314.099 C 343.117 313.893,343.993 313.675,344.391 313.615 C 344.789 313.555,345.170 313.417,345.237 313.309 C 345.305 313.200,345.648 313.111,346.000 313.111 C 346.352 313.111,346.702 313.011,346.778 312.889 C 346.853 312.767,347.153 312.667,347.444 312.667 C 347.736 312.667,348.036 312.567,348.111 312.444 C 348.187 312.322,348.487 312.222,348.778 312.222 C 349.069 312.222,349.369 312.122,349.444 312.000 C 349.520 311.878,349.744 311.778,349.943 311.778 C 350.142 311.778,350.711 311.588,351.208 311.355 C 352.099 310.938,353.361 310.391,354.444 309.951 C 354.750 309.827,355.174 309.638,355.386 309.530 C 355.598 309.422,355.915 309.333,356.090 309.333 C 356.264 309.333,356.441 309.258,356.481 309.167 C 356.522 309.075,357.606 308.469,358.889 307.821 C 361.700 306.399,362.345 306.040,363.257 305.389 C 363.642 305.114,364.067 304.889,364.201 304.889 C 364.335 304.889,364.444 304.789,364.444 304.667 C 364.444 304.544,364.594 304.444,364.778 304.444 C 364.961 304.444,365.111 304.344,365.111 304.222 C 365.111 304.100,365.221 304.000,365.355 304.000 C 365.564 304.000,369.017 301.694,369.333 301.343 C 369.394 301.275,369.794 300.955,370.222 300.633 C 370.650 300.310,371.203 299.860,371.452 299.634 C 371.701 299.407,372.351 298.876,372.897 298.452 C 375.269 296.611,380.774 291.097,382.334 289.000 C 382.698 288.511,383.151 287.961,383.342 287.778 C 383.533 287.594,383.984 287.044,384.343 286.556 C 384.703 286.067,385.053 285.617,385.121 285.556 C 385.188 285.494,385.486 285.094,385.782 284.667 C 386.079 284.239,386.399 283.789,386.495 283.667 C 387.325 282.603,389.285 279.430,389.480 278.833 C 389.550 278.619,389.686 278.444,389.782 278.444 C 389.998 278.444,393.556 271.402,393.556 270.975 C 393.556 270.805,393.656 270.667,393.778 270.667 C 393.900 270.667,394.000 270.467,394.000 270.222 C 394.000 269.978,394.100 269.778,394.222 269.778 C 394.344 269.778,394.444 269.484,394.444 269.124 C 394.444 268.765,394.544 268.409,394.667 268.333 C 394.789 268.258,394.889 268.002,394.889 267.765 C 394.889 267.527,394.984 267.333,395.101 267.333 C 395.218 267.333,395.379 266.982,395.460 266.553 C 395.540 266.124,395.695 265.718,395.803 265.651 C 395.911 265.584,396.000 265.285,396.000 264.987 C 396.000 264.689,396.100 264.444,396.222 264.444 C 396.344 264.444,396.444 264.094,396.444 263.667 C 396.444 263.239,396.544 262.889,396.667 262.889 C 396.789 262.889,396.889 262.589,396.889 262.222 C 396.889 261.856,396.989 261.556,397.111 261.556 C 397.233 261.556,397.333 261.288,397.333 260.960 C 397.333 260.633,397.424 260.058,397.535 259.682 C 398.561 256.212,398.893 254.593,399.292 251.111 C 399.384 250.317,399.580 249.448,399.729 249.181 C 400.169 248.393,400.120 67.551,399.680 66.589 C 399.503 66.204,399.307 65.289,399.244 64.556 C 399.038 62.180,398.870 61.009,398.669 60.556 C 398.561 60.311,398.424 59.761,398.366 59.333 C 398.250 58.490,397.825 56.823,397.543 56.111 C 397.353 55.632,397.150 54.762,396.960 53.609 C 396.894 53.211,396.751 52.830,396.642 52.763 C 396.533 52.695,396.444 52.346,396.444 51.987 C 396.444 51.627,396.344 51.333,396.222 51.333 C 396.100 51.333,396.000 51.132,396.000 50.886 C 396.000 50.640,395.911 50.265,395.802 50.053 C 395.694 49.840,395.429 49.267,395.214 48.778 C 394.999 48.289,394.755 47.739,394.671 47.556 C 394.588 47.372,394.381 46.747,394.211 46.167 C 394.042 45.586,393.825 45.111,393.729 45.111 C 393.634 45.111,393.556 44.986,393.556 44.833 C 393.557 44.483,391.059 39.470,390.834 39.370 C 390.742 39.330,390.667 39.160,390.667 38.993 C 390.667 38.826,390.342 38.209,389.944 37.622 C 389.005 36.235,388.464 35.316,388.301 34.833 C 388.229 34.619,388.082 34.444,387.974 34.444 C 387.866 34.444,387.778 34.318,387.778 34.164 C 387.778 34.010,387.528 33.615,387.222 33.285 C 386.917 32.956,386.665 32.607,386.663 32.510 C 386.660 32.413,386.418 32.033,386.124 31.667 C 385.830 31.300,385.062 30.300,384.417 29.444 C 383.772 28.589,383.139 27.776,383.011 27.638 C 382.883 27.500,382.328 26.831,381.778 26.152 C 380.694 24.813,374.627 18.777,373.207 17.624 C 372.237 16.837,370.514 15.450,370.000 15.041 C 369.817 14.895,368.967 14.282,368.111 13.677 C 367.256 13.073,366.522 12.498,366.481 12.400 C 366.441 12.302,366.309 12.222,366.188 12.222 C 366.068 12.222,365.533 11.922,365.000 11.556 C 364.467 11.189,363.967 10.889,363.890 10.889 C 363.812 10.889,363.420 10.639,363.020 10.333 C 362.619 10.028,362.184 9.778,362.053 9.778 C 361.922 9.778,361.781 9.699,361.741 9.604 C 361.700 9.508,360.917 9.051,360.000 8.589 C 359.083 8.128,358.033 7.563,357.667 7.335 C 357.300 7.108,356.825 6.914,356.611 6.905 C 356.397 6.896,356.222 6.789,356.222 6.667 C 356.222 6.544,356.071 6.444,355.886 6.444 C 355.701 6.444,355.376 6.353,355.164 6.240 C 354.312 5.790,352.656 5.111,352.409 5.111 C 352.264 5.111,351.988 4.982,351.795 4.824 C 351.602 4.666,351.044 4.409,350.556 4.254 C 350.067 4.098,349.467 3.889,349.222 3.788 C 348.978 3.688,348.328 3.485,347.778 3.337 C 347.228 3.189,346.604 2.978,346.392 2.867 C 346.180 2.757,345.761 2.667,345.461 2.667 C 345.161 2.667,344.853 2.567,344.778 2.444 C 344.702 2.322,344.421 2.222,344.154 2.221 C 343.886 2.220,343.380 2.070,343.030 1.888 C 342.680 1.705,342.075 1.556,341.686 1.556 C 341.296 1.556,340.883 1.466,340.767 1.356 C 340.559 1.159,340.124 1.078,337.392 0.721 C 336.630 0.621,335.885 0.418,335.737 0.270 C 335.285 -0.181,64.152 -0.118,63.778 0.333 M329.778 13.392 C 330.450 13.471,331.550 13.599,332.222 13.677 C 353.583 16.153,374.254 32.350,381.983 52.667 C 382.378 53.706,382.829 54.856,382.984 55.222 C 384.167 58.004,385.495 63.995,386.114 69.333 C 386.503 72.691,386.612 242.071,386.227 245.667 C 383.092 274.978,362.447 296.945,333.222 302.065 L 330.556 302.532 201.556 302.615 C 72.023 302.699,70.432 302.691,66.000 301.966 C 38.283 297.429,17.496 275.879,13.513 247.556 C 13.148 244.957,12.969 76.692,13.326 71.494 C 15.434 40.803,40.546 15.273,70.444 13.426 C 71.728 13.347,72.820 13.242,72.872 13.194 C 73.035 13.045,328.488 13.241,329.778 13.392 M155.167 39.928 L 131.111 40.002 131.111 74.575 C 131.111 110.701,131.116 110.524,130.202 107.835 C 126.559 97.117,117.233 89.477,104.000 86.369 C 94.914 84.235,89.158 83.952,56.667 84.041 L 31.000 84.111 30.944 157.944 L 30.888 231.778 52.902 231.778 C 73.352 231.778,76.191 231.703,74.012 231.225 C 70.131 230.372,65.695 224.024,64.773 218.004 C 64.470 216.019,64.233 173.471,64.524 173.180 C 64.575 173.128,67.353 175.848,70.697 179.223 C 77.377 185.963,77.058 185.693,78.716 186.013 C 94.262 189.015,111.669 183.461,121.937 172.222 C 125.247 168.598,128.574 163.113,130.086 158.784 C 130.383 157.933,130.736 157.199,130.869 157.155 C 131.043 157.097,131.111 173.727,131.111 216.537 L 131.111 276.000 157.389 275.997 L 183.667 275.994 182.011 275.091 C 176.910 272.311,174.219 268.148,173.225 261.501 C 172.767 258.442,172.710 177.778,173.166 177.778 C 173.318 177.778,177.893 182.221,183.332 187.653 L 193.222 197.528 195.000 198.087 C 203.092 200.636,211.496 200.632,222.778 198.076 C 226.150 197.312,230.333 196.026,232.778 195.003 C 241.775 191.236,247.640 187.462,253.629 181.584 C 258.451 176.852,262.555 171.361,265.151 166.167 C 265.819 164.830,266.219 164.542,266.227 165.389 C 266.404 182.907,272.826 202.138,282.200 213.219 C 289.749 222.143,302.739 229.344,314.889 231.341 C 315.439 231.432,316.439 231.616,317.111 231.750 C 325.758 233.481,343.283 233.399,358.556 231.556 C 361.452 231.206,368.320 230.183,368.500 230.074 C 368.592 230.019,368.667 213.730,368.667 193.876 L 368.667 157.778 348.538 157.778 L 328.410 157.778 330.230 158.711 C 334.425 160.862,337.273 164.658,338.617 169.889 C 339.186 172.105,339.293 208.804,338.730 208.972 C 326.435 212.636,312.337 206.230,307.340 194.709 C 300.613 179.200,299.489 142.148,305.322 128.222 C 315.353 104.274,342.231 98.637,365.889 115.518 C 366.989 116.303,367.922 117.033,367.963 117.139 C 368.004 117.246,368.179 117.333,368.352 117.333 C 368.700 117.333,368.844 85.914,368.497 85.699 C 368.329 85.595,366.158 85.253,363.333 84.886 C 362.539 84.782,360.339 84.493,358.444 84.243 C 331.726 80.717,310.889 83.429,295.285 92.465 C 287.701 96.856,278.903 105.903,276.003 112.291 C 275.265 113.916,275.112 113.727,275.001 111.057 C 274.756 105.099,274.480 101.758,273.878 97.444 C 273.810 96.956,273.660 95.806,273.546 94.889 C 272.948 90.095,271.751 84.802,270.127 79.778 C 262.219 55.315,246.426 43.929,216.222 40.915 C 205.802 39.876,200.381 39.788,155.167 39.928 M202.222 63.002 C 207.831 63.868,211.219 64.999,215.006 67.266 C 219.513 69.965,222.118 72.499,225.328 77.307 C 232.789 88.483,235.696 109.412,232.864 131.556 C 229.808 155.440,219.128 169.987,202.941 172.311 C 194.766 173.485,179.781 169.846,173.611 165.189 L 172.889 164.644 172.893 120.489 C 172.897 72.404,172.840 74.596,174.138 72.213 C 175.921 68.936,180.021 65.908,184.830 64.315 C 186.514 63.757,187.335 63.595,191.444 63.006 C 194.225 62.608,199.661 62.606,202.222 63.002 M83.773 101.101 C 95.929 103.773,101.843 114.013,101.873 132.444 C 101.908 154.189,95.458 165.773,82.673 166.926 C 76.063 167.522,68.920 165.935,65.274 163.061 L 64.438 162.402 64.497 134.701 L 64.556 107.000 65.258 105.667 C 66.987 102.388,69.453 101.181,75.667 100.576 C 77.435 100.403,81.921 100.694,83.773 101.101 " stroke="none" fill="#fbfbfb" fill-rule="evenodd"></path><path id="path1" d="M68.778 13.780 C 68.289 13.877,66.789 14.122,65.444 14.325 C 64.100 14.528,62.650 14.784,62.222 14.895 C 61.794 15.005,60.844 15.242,60.111 15.422 C 38.759 20.653,20.433 39.041,15.350 60.333 C 15.204 60.944,14.998 61.794,14.891 62.222 C 14.785 62.650,14.538 64.050,14.342 65.333 C 14.146 66.617,13.889 68.208,13.770 68.870 C 13.472 70.542,13.478 245.135,13.776 246.974 C 13.898 247.722,14.153 249.333,14.344 250.556 C 14.843 253.755,16.142 259.021,16.685 260.053 C 16.797 260.265,16.889 260.550,16.889 260.686 C 16.889 261.179,18.738 265.505,20.042 268.064 C 29.206 286.045,45.712 298.233,65.366 301.534 C 71.018 302.483,69.495 302.474,202.222 302.395 C 343.686 302.312,330.687 302.458,337.778 300.864 C 361.058 295.627,379.717 276.808,384.684 253.556 C 386.267 246.145,386.218 249.175,386.217 157.778 C 386.216 71.088,386.196 69.454,385.113 64.333 C 385.010 63.844,384.805 62.844,384.658 62.111 C 384.512 61.378,383.965 59.328,383.444 57.556 C 376.925 35.391,357.053 17.907,334.333 14.345 C 333.111 14.154,331.500 13.898,330.752 13.776 C 329.103 13.508,70.125 13.512,68.778 13.780 M208.000 39.904 C 209.039 39.969,210.558 40.117,211.376 40.233 C 212.194 40.349,213.475 40.444,214.222 40.444 C 214.970 40.444,216.301 40.543,217.180 40.664 C 218.059 40.785,219.578 40.990,220.556 41.120 C 229.951 42.368,237.504 44.470,244.111 47.674 C 261.835 56.271,271.610 73.121,274.530 100.111 C 274.998 104.444,275.340 109.118,275.343 111.222 L 275.345 113.000 275.910 111.900 C 285.633 92.963,310.679 81.308,339.034 82.525 C 350.000 82.996,355.243 83.445,364.111 84.673 C 365.089 84.808,366.522 85.003,367.295 85.107 C 368.069 85.210,368.769 85.362,368.851 85.444 C 369.173 85.765,369.141 117.558,368.818 117.682 C 368.653 117.745,367.275 116.868,365.757 115.732 C 359.813 111.285,352.545 108.015,346.111 106.892 C 345.256 106.743,344.076 106.531,343.489 106.422 C 342.902 106.312,340.564 106.222,338.292 106.222 C 326.527 106.222,317.926 110.220,311.131 118.846 C 305.450 126.059,303.319 132.562,302.452 145.333 C 301.572 158.292,301.572 158.613,302.464 170.889 C 304.231 195.210,311.265 206.167,327.137 209.326 C 330.105 209.916,337.607 209.454,338.614 208.618 C 339.084 208.228,338.873 172.265,338.388 170.222 C 337.324 165.734,335.369 162.477,332.459 160.346 C 331.134 159.375,328.849 158.222,328.250 158.222 C 327.727 158.222,327.602 157.671,328.084 157.486 C 328.716 157.243,368.209 157.311,368.666 157.555 C 369.222 157.853,369.387 229.335,368.833 230.053 C 368.634 230.311,367.492 230.574,364.778 230.984 C 359.212 231.825,358.198 231.950,354.778 232.222 C 353.067 232.358,350.817 232.558,349.778 232.666 C 348.739 232.774,346.599 232.873,345.022 232.886 C 343.445 232.899,341.445 233.002,340.577 233.115 C 338.436 233.393,328.332 233.387,325.508 233.106 C 299.820 230.547,283.991 220.801,274.399 201.636 C 272.301 197.445,269.752 190.408,268.896 186.444 C 268.777 185.894,268.523 184.794,268.331 184.000 C 267.841 181.972,267.463 179.703,266.665 174.000 C 266.362 171.840,265.999 167.809,266.000 166.611 C 266.000 166.031,265.900 165.556,265.778 165.556 C 265.656 165.556,265.556 165.674,265.556 165.819 C 265.556 165.964,264.943 167.139,264.194 168.430 C 257.588 179.823,247.427 188.935,235.556 194.115 C 222.292 199.902,207.441 201.790,197.175 198.993 C 192.882 197.823,193.790 198.541,183.051 187.821 L 173.325 178.111 173.398 220.333 C 173.477 266.202,173.379 262.412,174.588 266.111 C 175.997 270.424,179.365 273.938,183.629 275.544 C 183.975 275.674,184.224 275.885,184.181 276.012 C 184.111 276.222,131.174 276.359,130.964 276.149 C 130.924 276.109,130.887 249.549,130.883 217.128 C 130.875 165.333,130.835 158.213,130.548 158.450 C 130.369 158.599,130.222 158.878,130.222 159.070 C 130.222 159.594,127.519 164.983,126.294 166.901 C 121.777 173.975,114.806 179.808,107.111 182.953 C 98.628 186.421,88.462 187.946,81.556 186.786 C 76.821 185.991,78.019 186.789,70.944 179.720 L 64.667 173.447 64.667 194.779 C 64.667 217.251,64.683 217.648,65.687 221.102 C 66.881 225.210,70.287 229.304,73.778 230.827 C 77.154 232.300,78.220 232.230,53.297 232.168 L 30.778 232.111 30.778 158.000 L 30.778 83.889 59.222 83.889 C 93.879 83.889,96.946 84.073,106.681 86.745 C 117.646 89.753,126.443 97.364,130.138 107.040 C 130.343 107.576,130.590 108.064,130.688 108.124 C 130.814 108.202,130.959 59.281,130.890 40.057 C 130.888 39.634,201.436 39.494,208.000 39.904 M193.778 63.127 C 190.165 63.470,187.659 63.820,186.444 64.150 C 185.772 64.333,184.922 64.560,184.556 64.654 C 180.637 65.659,175.880 69.352,174.276 72.632 L 173.444 74.333 173.386 119.487 L 173.328 164.640 174.053 165.190 C 179.117 169.034,190.257 172.111,199.111 172.111 C 222.755 172.111,236.425 145.396,233.222 105.444 C 230.879 76.212,216.658 60.954,193.778 63.127 M72.667 101.227 C 68.845 101.781,66.774 103.109,65.455 105.851 L 64.667 107.491 64.667 134.952 L 64.667 162.413 66.278 163.409 C 68.826 164.985,70.008 165.416,74.667 166.467 C 79.004 167.446,86.081 166.582,89.817 164.618 C 94.669 162.068,98.974 155.198,100.232 148.000 C 100.328 147.450,100.520 146.350,100.658 145.556 C 102.203 136.700,101.706 122.921,99.616 116.667 C 95.520 104.404,86.475 99.222,72.667 101.227 " stroke="none" fill="#047bab" fill-rule="evenodd"></path><path id="path2" d="M183.626 39.722 C 186.415 39.757,190.915 39.757,193.626 39.722 C 196.337 39.687,194.056 39.658,188.556 39.658 C 183.056 39.658,180.837 39.687,183.626 39.722 M193.500 63.046 C 193.775 63.099,194.225 63.099,194.500 63.046 C 194.775 62.993,194.550 62.949,194.000 62.949 C 193.450 62.949,193.225 62.993,193.500 63.046 M199.500 63.046 C 199.775 63.099,200.225 63.099,200.500 63.046 C 200.775 62.993,200.550 62.949,200.000 62.949 C 199.450 62.949,199.225 62.993,199.500 63.046 M221.222 72.444 C 221.700 72.933,222.140 73.333,222.201 73.333 C 222.262 73.333,221.922 72.933,221.444 72.444 C 220.967 71.956,220.526 71.556,220.465 71.556 C 220.404 71.556,220.745 71.956,221.222 72.444 M173.220 119.556 C 173.220 143.939,173.246 153.914,173.278 141.722 C 173.310 129.531,173.310 109.581,173.278 97.389 C 173.246 85.197,173.220 95.172,173.220 119.556 M330.389 82.827 C 330.786 82.877,331.436 82.877,331.833 82.827 C 332.231 82.778,331.906 82.738,331.111 82.738 C 330.317 82.738,329.992 82.778,330.389 82.827 M341.278 82.827 C 341.675 82.877,342.325 82.877,342.722 82.827 C 343.119 82.778,342.794 82.738,342.000 82.738 C 341.206 82.738,340.881 82.778,341.278 82.827 M282.986 102.278 L 282.333 103.000 283.056 102.347 C 283.453 101.988,283.778 101.663,283.778 101.625 C 283.778 101.453,283.594 101.605,282.986 102.278 M233.163 104.222 C 233.163 104.650,233.208 104.825,233.264 104.611 C 233.320 104.397,233.320 104.047,233.264 103.833 C 233.208 103.619,233.163 103.794,233.163 104.222 M274.949 107.111 C 274.949 107.661,274.993 107.886,275.046 107.611 C 275.099 107.336,275.099 106.886,275.046 106.611 C 274.993 106.336,274.949 106.561,274.949 107.111 M64.552 135.111 C 64.552 149.839,64.579 155.864,64.611 148.500 C 64.644 141.136,64.644 129.086,64.611 121.722 C 64.579 114.358,64.552 120.383,64.552 135.111 M233.634 111.000 C 233.634 112.100,233.671 112.578,233.718 112.062 C 233.765 111.547,233.765 110.647,233.719 110.062 C 233.673 109.478,233.635 109.900,233.634 111.000 M233.638 118.444 C 233.638 119.728,233.674 120.253,233.719 119.611 C 233.764 118.969,233.764 117.919,233.719 117.278 C 233.674 116.636,233.638 117.161,233.638 118.444 M233.163 126.000 C 233.163 126.428,233.208 126.603,233.264 126.389 C 233.320 126.175,233.320 125.825,233.264 125.611 C 233.208 125.397,233.163 125.572,233.163 126.000 M302.056 147.889 C 302.059 148.378,302.104 148.552,302.157 148.275 C 302.210 147.999,302.208 147.599,302.153 147.386 C 302.097 147.174,302.054 147.400,302.056 147.889 M93.430 162.056 L 92.778 162.778 93.500 162.125 C 94.173 161.517,94.324 161.333,94.153 161.333 C 94.114 161.333,93.789 161.658,93.430 162.056 M219.212 164.056 L 218.333 165.000 219.278 164.122 C 220.156 163.305,220.324 163.111,220.156 163.111 C 220.120 163.111,219.695 163.536,219.212 164.056 M302.052 168.444 C 302.052 168.872,302.097 169.047,302.153 168.833 C 302.209 168.619,302.209 168.269,302.153 168.056 C 302.097 167.842,302.052 168.017,302.052 168.444 M120.444 173.889 C 119.905 174.439,119.513 174.889,119.574 174.889 C 119.635 174.889,120.127 174.439,120.667 173.889 C 121.206 173.339,121.598 172.889,121.537 172.889 C 121.476 172.889,120.984 173.339,120.444 173.889 M65.111 173.835 C 65.111 173.866,67.836 176.591,71.167 179.890 L 77.222 185.889 71.224 179.833 C 65.649 174.206,65.111 173.678,65.111 173.835 M338.995 190.667 C 338.995 200.017,339.022 203.842,339.055 199.167 C 339.089 194.492,339.089 186.842,339.055 182.167 C 339.022 177.492,338.995 181.317,338.995 190.667 M64.551 194.333 C 64.551 205.578,64.578 210.210,64.611 204.628 C 64.644 199.045,64.644 189.845,64.611 184.183 C 64.578 178.521,64.551 183.089,64.551 194.333 M173.220 219.222 C 173.220 241.467,173.246 250.534,173.278 239.371 C 173.310 228.209,173.310 210.009,173.278 198.927 C 173.246 187.845,173.220 196.978,173.220 219.222 M204.503 200.159 C 204.841 200.211,205.341 200.209,205.614 200.156 C 205.887 200.104,205.611 200.062,205.000 200.064 C 204.389 200.065,204.165 200.108,204.503 200.159 M209.167 200.159 C 209.503 200.210,210.053 200.210,210.389 200.159 C 210.725 200.108,210.450 200.067,209.778 200.067 C 209.106 200.067,208.831 200.108,209.167 200.159 M352.500 232.375 C 352.714 232.431,353.064 232.431,353.278 232.375 C 353.492 232.320,353.317 232.274,352.889 232.274 C 352.461 232.274,352.286 232.320,352.500 232.375 M344.837 232.828 C 345.237 232.877,345.837 232.876,346.171 232.825 C 346.505 232.775,346.178 232.734,345.444 232.736 C 344.711 232.737,344.438 232.778,344.837 232.828 M340.056 233.042 C 340.269 233.098,340.619 233.098,340.833 233.042 C 341.047 232.986,340.872 232.940,340.444 232.940 C 340.017 232.940,339.842 232.986,340.056 233.042 M367.884 284.278 L 366.111 286.111 367.944 284.339 C 369.647 282.692,369.879 282.444,369.717 282.444 C 369.684 282.444,368.859 283.269,367.884 284.278 " stroke="none" fill="#54a8c5" fill-rule="evenodd"></path><path id="path3" d="M136.389 13.500 C 171.253 13.531,228.303 13.531,263.167 13.500 C 298.031 13.469,269.506 13.444,199.778 13.444 C 130.050 13.444,101.525 13.469,136.389 13.500 M32.767 30.500 L 31.889 31.444 32.833 30.566 C 33.353 30.083,33.778 29.658,33.778 29.622 C 33.778 29.453,33.584 29.622,32.767 30.500 M30.432 32.833 L 29.667 33.667 30.500 32.901 C 31.276 32.188,31.436 32.000,31.266 32.000 C 31.229 32.000,30.854 32.375,30.432 32.833 M203.944 39.935 C 204.219 39.988,204.669 39.988,204.944 39.935 C 205.219 39.882,204.994 39.838,204.444 39.838 C 203.894 39.838,203.669 39.882,203.944 39.935 M209.278 40.157 C 209.553 40.210,210.003 40.210,210.278 40.157 C 210.553 40.104,210.328 40.061,209.778 40.061 C 209.228 40.061,209.003 40.104,209.278 40.157 M191.722 63.268 C 191.997 63.321,192.447 63.321,192.722 63.268 C 192.997 63.215,192.772 63.172,192.222 63.172 C 191.672 63.172,191.447 63.215,191.722 63.268 M201.503 63.268 C 201.779 63.321,202.179 63.319,202.391 63.264 C 202.604 63.208,202.378 63.165,201.889 63.167 C 201.400 63.170,201.226 63.215,201.503 63.268 M385.829 69.778 C 385.829 70.206,385.875 70.381,385.931 70.167 C 385.987 69.953,385.987 69.603,385.931 69.389 C 385.875 69.175,385.829 69.350,385.829 69.778 M386.071 72.889 C 386.071 73.683,386.111 74.008,386.161 73.611 C 386.210 73.214,386.210 72.564,386.161 72.167 C 386.111 71.769,386.071 72.094,386.071 72.889 M13.443 158.000 C 13.443 204.750,13.469 223.875,13.500 200.500 C 13.531 177.125,13.531 138.875,13.500 115.500 C 13.469 92.125,13.443 111.250,13.443 158.000 M386.332 157.778 C 386.332 203.672,386.358 222.447,386.389 199.500 C 386.420 176.553,386.420 139.003,386.389 116.056 C 386.358 93.108,386.332 111.883,386.332 157.778 M334.512 82.610 C 335.710 82.650,337.610 82.650,338.734 82.610 C 339.858 82.570,338.878 82.537,336.556 82.537 C 334.233 82.537,333.314 82.570,334.512 82.610 M40.739 83.944 C 45.728 83.978,53.828 83.978,58.739 83.944 C 63.649 83.911,59.567 83.884,49.667 83.884 C 39.767 83.884,35.749 83.911,40.739 83.944 M81.611 83.940 C 82.069 83.988,82.819 83.988,83.278 83.940 C 83.736 83.892,83.361 83.852,82.444 83.852 C 81.528 83.852,81.153 83.892,81.611 83.940 M30.776 157.667 C 30.776 198.244,30.802 214.811,30.833 194.482 C 30.865 174.153,30.865 140.953,30.833 120.704 C 30.802 100.456,30.776 117.089,30.776 157.667 M88.389 84.157 C 88.664 84.210,89.114 84.210,89.389 84.157 C 89.664 84.104,89.439 84.061,88.889 84.061 C 88.339 84.061,88.114 84.104,88.389 84.157 M95.833 84.820 C 96.047 84.876,96.397 84.876,96.611 84.820 C 96.825 84.764,96.650 84.718,96.222 84.718 C 95.794 84.718,95.619 84.764,95.833 84.820 M364.056 84.820 C 364.269 84.876,364.619 84.876,364.833 84.820 C 365.047 84.764,364.872 84.718,364.444 84.718 C 364.017 84.718,363.842 84.764,364.056 84.820 M368.889 101.822 C 368.828 110.586,368.853 117.680,368.946 117.587 C 369.038 117.495,369.088 110.325,369.057 101.654 L 369.000 85.889 368.889 101.822 M122.556 95.778 C 123.528 96.756,124.373 97.556,124.434 97.556 C 124.495 97.556,123.750 96.756,122.778 95.778 C 121.806 94.800,120.960 94.000,120.899 94.000 C 120.838 94.000,121.584 94.800,122.556 95.778 M284.542 100.500 L 283.889 101.222 284.611 100.570 C 285.008 100.211,285.333 99.886,285.333 99.847 C 285.333 99.676,285.150 99.827,284.542 100.500 M77.173 100.830 C 77.758 100.876,78.658 100.876,79.173 100.829 C 79.689 100.782,79.211 100.745,78.111 100.746 C 77.011 100.746,76.589 100.784,77.173 100.830 M274.736 103.000 C 274.737 103.733,274.778 104.007,274.828 103.607 C 274.877 103.208,274.876 102.608,274.825 102.274 C 274.775 101.940,274.734 102.267,274.736 103.000 M130.730 106.111 C 130.732 106.722,130.775 106.946,130.826 106.608 C 130.877 106.270,130.876 105.770,130.823 105.497 C 130.770 105.224,130.729 105.500,130.730 106.111 M336.289 106.166 C 337.364 106.206,339.064 106.206,340.066 106.165 C 341.069 106.124,340.189 106.091,338.111 106.091 C 336.033 106.091,335.213 106.125,336.289 106.166 M233.394 107.556 C 233.394 108.106,233.437 108.331,233.490 108.056 C 233.543 107.781,233.543 107.331,233.490 107.056 C 233.437 106.781,233.394 107.006,233.394 107.556 M275.178 109.111 C 275.178 109.783,275.219 110.058,275.270 109.722 C 275.321 109.386,275.321 108.836,275.270 108.500 C 275.219 108.164,275.178 108.439,275.178 109.111 M233.632 114.556 C 233.633 115.533,233.672 115.906,233.719 115.383 C 233.765 114.860,233.765 114.060,233.717 113.605 C 233.669 113.150,233.631 113.578,233.632 114.556 M233.400 122.222 C 233.400 122.894,233.442 123.169,233.493 122.833 C 233.543 122.497,233.543 121.947,233.493 121.611 C 233.442 121.275,233.400 121.550,233.400 122.222 M101.163 124.444 C 101.163 124.872,101.208 125.047,101.264 124.833 C 101.320 124.619,101.320 124.269,101.264 124.056 C 101.208 123.842,101.163 124.017,101.163 124.444 M101.646 132.556 C 101.646 134.633,101.680 135.513,101.721 134.511 C 101.762 133.509,101.762 131.809,101.721 130.733 C 101.680 129.658,101.647 130.478,101.646 132.556 M101.167 141.222 C 101.170 141.711,101.215 141.885,101.268 141.609 C 101.321 141.332,101.319 140.932,101.264 140.720 C 101.208 140.507,101.165 140.733,101.167 141.222 M302.278 145.889 C 302.281 146.378,302.326 146.552,302.379 146.275 C 302.433 145.999,302.431 145.599,302.375 145.386 C 302.319 145.174,302.276 145.400,302.278 145.889 M302.067 149.778 C 302.067 150.450,302.108 150.725,302.159 150.389 C 302.210 150.053,302.210 149.503,302.159 149.167 C 302.108 148.831,302.067 149.106,302.067 149.778 M301.854 152.778 C 301.855 153.756,301.894 154.128,301.941 153.605 C 301.988 153.083,301.987 152.283,301.939 151.827 C 301.892 151.372,301.853 151.800,301.854 152.778 M328.500 157.487 C 328.714 157.542,329.064 157.542,329.278 157.487 C 329.492 157.431,329.317 157.385,328.889 157.385 C 328.461 157.385,328.286 157.431,328.500 157.487 M340.389 157.500 C 345.553 157.533,354.003 157.533,359.167 157.500 C 364.331 157.467,360.106 157.439,349.778 157.439 C 339.450 157.439,335.225 157.467,340.389 157.500 M368.889 193.733 L 369.000 229.889 369.056 193.901 C 369.087 174.107,369.037 157.837,368.945 157.745 C 368.853 157.653,368.828 173.848,368.889 193.733 M130.733 160.222 C 130.733 160.894,130.775 161.169,130.826 160.833 C 130.877 160.497,130.877 159.947,130.826 159.611 C 130.775 159.275,130.733 159.550,130.733 160.222 M301.852 163.556 C 301.852 164.472,301.892 164.847,301.940 164.389 C 301.988 163.931,301.988 163.181,301.940 162.722 C 301.892 162.264,301.852 162.639,301.852 163.556 M173.137 164.139 C 173.123 164.399,173.286 164.749,173.500 164.917 C 173.838 165.182,173.856 165.179,173.635 164.889 C 173.495 164.706,173.332 164.356,173.272 164.111 C 173.168 163.689,173.161 163.690,173.137 164.139 M302.069 166.556 C 302.070 167.289,302.112 167.562,302.161 167.163 C 302.211 166.763,302.209 166.163,302.159 165.829 C 302.108 165.495,302.068 165.822,302.069 166.556 M77.058 166.824 C 77.335 166.877,77.735 166.875,77.947 166.819 C 78.159 166.764,77.933 166.720,77.444 166.723 C 76.956 166.725,76.782 166.771,77.058 166.824 M81.725 166.824 C 82.001 166.877,82.401 166.875,82.614 166.819 C 82.826 166.764,82.600 166.720,82.111 166.723 C 81.622 166.725,81.448 166.771,81.725 166.824 M198.507 172.386 C 199.091 172.432,199.991 172.431,200.507 172.385 C 201.022 172.338,200.544 172.300,199.444 172.301 C 198.344 172.302,197.922 172.340,198.507 172.386 M338.718 172.889 C 338.718 173.317,338.764 173.492,338.820 173.278 C 338.876 173.064,338.876 172.714,338.820 172.500 C 338.764 172.286,338.718 172.461,338.718 172.889 M173.137 178.500 C 173.159 178.924,173.179 178.936,173.270 178.579 C 173.355 178.249,175.508 180.275,183.189 187.912 L 193.000 197.667 183.223 187.833 C 173.182 177.734,173.093 177.652,173.137 178.500 M254.218 181.278 L 251.889 183.667 254.278 181.337 C 256.497 179.174,256.768 178.889,256.607 178.889 C 256.574 178.889,255.499 179.964,254.218 181.278 M202.944 200.153 C 203.158 200.209,203.508 200.209,203.722 200.153 C 203.936 200.097,203.761 200.052,203.333 200.052 C 202.906 200.052,202.731 200.097,202.944 200.153 M211.280 200.157 C 211.557 200.210,211.957 200.208,212.169 200.153 C 212.382 200.097,212.156 200.054,211.667 200.056 C 211.178 200.059,211.004 200.104,211.280 200.157 M206.722 200.381 C 207.058 200.432,207.608 200.432,207.944 200.381 C 208.281 200.330,208.006 200.289,207.333 200.289 C 206.661 200.289,206.386 200.330,206.722 200.381 M329.833 209.715 C 330.169 209.766,330.719 209.766,331.056 209.715 C 331.392 209.664,331.117 209.622,330.444 209.622 C 329.772 209.622,329.497 209.664,329.833 209.715 M332.503 209.715 C 332.841 209.766,333.341 209.765,333.614 209.712 C 333.887 209.659,333.611 209.617,333.000 209.619 C 332.389 209.621,332.165 209.664,332.503 209.715 M285.778 217.444 C 286.192 217.872,286.582 218.222,286.643 218.222 C 286.704 218.222,286.415 217.872,286.000 217.444 C 285.585 217.017,285.196 216.667,285.135 216.667 C 285.074 216.667,285.363 217.017,285.778 217.444 M360.944 231.487 C 361.158 231.542,361.508 231.542,361.722 231.487 C 361.936 231.431,361.761 231.385,361.333 231.385 C 360.906 231.385,360.731 231.431,360.944 231.487 M30.724 231.778 C 30.804 232.071,33.471 232.111,53.019 232.113 L 75.222 232.114 53.124 232.056 C 35.798 232.010,30.983 231.938,30.829 231.721 C 30.684 231.517,30.657 231.532,30.724 231.778 M349.389 232.598 C 349.603 232.654,349.953 232.654,350.167 232.598 C 350.381 232.542,350.206 232.496,349.778 232.496 C 349.350 232.496,349.175 232.542,349.389 232.598 M386.071 242.889 C 386.071 243.683,386.111 244.008,386.161 243.611 C 386.210 243.214,386.210 242.564,386.161 242.167 C 386.111 241.769,386.071 242.094,386.071 242.889 M183.222 276.222 L 182.333 276.381 183.154 276.413 C 183.605 276.430,184.036 276.344,184.111 276.222 C 184.187 276.100,184.218 276.014,184.180 276.032 C 184.142 276.049,183.711 276.135,183.222 276.222 M71.392 302.382 C 71.730 302.433,72.230 302.431,72.503 302.379 C 72.776 302.326,72.500 302.284,71.889 302.286 C 71.278 302.287,71.054 302.331,71.392 302.382 M327.170 302.382 C 327.508 302.433,328.008 302.431,328.281 302.379 C 328.554 302.326,328.278 302.284,327.667 302.286 C 327.056 302.287,326.832 302.331,327.170 302.382 M136.629 302.611 C 171.503 302.642,228.503 302.642,263.296 302.611 C 298.089 302.580,269.556 302.555,199.889 302.555 C 130.222 302.555,101.755 302.580,136.629 302.611 " stroke="none" fill="#3b94bc" fill-rule="evenodd"></path><path id="path4" d="M136.278 13.278 C 171.203 13.309,228.353 13.309,263.278 13.278 C 298.203 13.247,269.628 13.221,199.778 13.221 C 129.928 13.221,101.353 13.247,136.278 13.278 M70.944 13.493 C 71.281 13.543,71.831 13.543,72.167 13.493 C 72.503 13.442,72.228 13.400,71.556 13.400 C 70.883 13.400,70.608 13.442,70.944 13.493 M327.392 13.493 C 327.730 13.544,328.230 13.543,328.503 13.490 C 328.776 13.437,328.500 13.395,327.889 13.397 C 327.278 13.399,327.054 13.442,327.392 13.493 M66.278 13.931 C 66.492 13.987,66.842 13.987,67.056 13.931 C 67.269 13.875,67.094 13.829,66.667 13.829 C 66.239 13.829,66.064 13.875,66.278 13.931 M61.778 14.667 C 61.331 14.810,61.309 14.846,61.667 14.851 C 61.911 14.855,62.311 14.772,62.556 14.667 C 63.122 14.423,62.538 14.423,61.778 14.667 M350.907 19.416 C 351.136 19.621,352.444 20.222,352.444 20.123 C 352.444 19.995,351.212 19.333,350.974 19.333 C 350.886 19.333,350.856 19.371,350.907 19.416 M367.889 31.556 C 369.107 32.778,370.153 33.778,370.214 33.778 C 370.275 33.778,369.329 32.778,368.111 31.556 C 366.893 30.333,365.847 29.333,365.786 29.333 C 365.725 29.333,366.671 30.333,367.889 31.556 M31.440 31.611 L 29.444 33.667 31.500 31.671 C 33.409 29.818,33.657 29.556,33.495 29.556 C 33.462 29.556,32.537 30.481,31.440 31.611 M374.222 38.889 C 374.483 39.256,374.747 39.556,374.808 39.556 C 374.869 39.556,374.706 39.256,374.444 38.889 C 374.183 38.522,373.920 38.222,373.859 38.222 C 373.798 38.222,373.961 38.522,374.222 38.889 M131.037 39.926 C 130.956 40.007,130.887 55.582,130.885 74.537 C 130.883 98.892,130.813 108.902,130.646 108.667 C 130.455 108.396,130.427 108.393,130.497 108.653 C 131.064 110.751,131.111 108.152,131.111 74.575 L 131.111 40.002 155.167 39.944 L 179.222 39.887 155.204 39.832 C 141.994 39.802,131.119 39.844,131.037 39.926 M199.389 39.942 C 200.092 39.986,201.242 39.986,201.944 39.942 C 202.647 39.898,202.072 39.862,200.667 39.862 C 199.261 39.862,198.686 39.898,199.389 39.942 M206.615 40.161 C 207.015 40.211,207.615 40.209,207.948 40.159 C 208.282 40.108,207.956 40.068,207.222 40.069 C 206.489 40.070,206.216 40.112,206.615 40.161 M209.170 40.382 C 209.508 40.433,210.008 40.431,210.281 40.379 C 210.554 40.326,210.278 40.284,209.667 40.286 C 209.056 40.287,208.832 40.331,209.170 40.382 M213.725 40.602 C 214.001 40.655,214.401 40.653,214.614 40.597 C 214.826 40.542,214.600 40.498,214.111 40.500 C 213.622 40.503,213.448 40.548,213.725 40.602 M217.611 41.042 C 217.825 41.098,218.175 41.098,218.389 41.042 C 218.603 40.986,218.428 40.940,218.000 40.940 C 217.572 40.940,217.397 40.986,217.611 41.042 M380.682 49.889 C 380.682 50.011,380.825 50.361,381.000 50.667 C 381.175 50.972,381.318 51.122,381.318 51.000 C 381.318 50.878,381.175 50.528,381.000 50.222 C 380.825 49.917,380.682 49.767,380.682 49.889 M256.880 56.722 C 257.800 57.703,258.000 57.880,258.000 57.713 C 258.000 57.677,257.525 57.202,256.944 56.657 L 255.889 55.667 256.880 56.722 M14.583 62.028 C 14.398 62.954,14.578 63.134,14.778 62.222 C 14.862 61.838,14.885 61.477,14.828 61.421 C 14.772 61.364,14.661 61.637,14.583 62.028 M195.178 62.832 C 196.253 62.873,197.953 62.873,198.955 62.832 C 199.958 62.791,199.078 62.757,197.000 62.758 C 194.922 62.758,194.102 62.791,195.178 62.832 M191.947 63.046 C 192.223 63.099,192.623 63.097,192.836 63.042 C 193.048 62.986,192.822 62.942,192.333 62.945 C 191.844 62.947,191.671 62.993,191.947 63.046 M201.280 63.046 C 201.557 63.099,201.957 63.097,202.169 63.042 C 202.382 62.986,202.156 62.942,201.667 62.945 C 201.178 62.947,201.004 62.993,201.280 63.046 M385.829 67.778 C 385.829 68.206,385.875 68.381,385.931 68.167 C 385.987 67.953,385.987 67.603,385.931 67.389 C 385.875 67.175,385.829 67.350,385.829 67.778 M386.162 71.667 C 386.227 73.011,386.317 74.153,386.362 74.204 C 386.506 74.366,386.407 71.714,386.222 70.444 C 386.101 69.612,386.082 70.001,386.162 71.667 M13.408 71.111 C 13.408 72.028,13.447 72.403,13.495 71.944 C 13.543 71.486,13.543 70.736,13.495 70.278 C 13.447 69.819,13.408 70.194,13.408 71.111 M220.778 71.778 C 221.503 72.511,222.147 73.111,222.208 73.111 C 222.269 73.111,221.726 72.511,221.000 71.778 C 220.274 71.044,219.631 70.444,219.569 70.444 C 219.508 70.444,220.052 71.044,220.778 71.778 M13.221 157.889 C 13.221 204.700,13.247 223.883,13.278 200.518 C 13.309 177.153,13.309 138.853,13.278 115.407 C 13.247 91.961,13.221 111.078,13.221 157.889 M172.944 120.243 L 172.889 164.598 173.389 165.021 C 173.888 165.444,173.888 165.444,173.501 164.983 C 173.134 164.548,173.109 162.016,173.056 120.205 L 172.999 75.889 172.944 120.243 M227.047 80.548 C 227.498 81.460,227.904 82.170,227.948 82.126 C 228.047 82.027,226.481 78.889,226.332 78.889 C 226.274 78.889,226.595 79.635,227.047 80.548 M334.512 82.832 C 335.710 82.873,337.610 82.872,338.734 82.832 C 339.858 82.792,338.878 82.759,336.556 82.759 C 334.233 82.760,333.314 82.792,334.512 82.832 M325.333 83.123 C 324.833 83.236,325.110 83.255,326.111 83.177 C 326.967 83.111,327.708 83.019,327.759 82.973 C 327.918 82.829,326.151 82.938,325.333 83.123 M346.281 83.048 C 346.619 83.099,347.119 83.098,347.392 83.045 C 347.665 82.993,347.389 82.951,346.778 82.952 C 346.167 82.954,345.943 82.997,346.281 83.048 M348.389 83.268 C 348.664 83.321,349.114 83.321,349.389 83.268 C 349.664 83.215,349.439 83.172,348.889 83.172 C 348.339 83.172,348.114 83.215,348.389 83.268 M351.280 83.491 C 351.557 83.544,351.957 83.542,352.169 83.486 C 352.382 83.430,352.156 83.387,351.667 83.389 C 351.178 83.392,351.004 83.437,351.280 83.491 M71.056 83.944 C 72.797 83.981,75.647 83.981,77.389 83.944 C 79.131 83.906,77.706 83.876,74.222 83.876 C 70.739 83.876,69.314 83.906,71.056 83.944 M85.722 84.161 C 86.119 84.210,86.769 84.210,87.167 84.161 C 87.564 84.111,87.239 84.071,86.444 84.071 C 85.650 84.071,85.325 84.111,85.722 84.161 M89.273 84.383 C 89.667 84.432,90.367 84.433,90.828 84.384 C 91.289 84.336,90.967 84.296,90.111 84.295 C 89.256 84.294,88.878 84.334,89.273 84.383 M94.169 84.824 C 94.446 84.877,94.846 84.875,95.058 84.819 C 95.271 84.764,95.044 84.720,94.556 84.723 C 94.067 84.725,93.893 84.771,94.169 84.824 M367.333 85.419 C 367.333 85.466,367.628 85.548,367.988 85.601 C 368.348 85.654,368.593 85.615,368.531 85.515 C 368.421 85.337,367.333 85.250,367.333 85.419 M368.721 101.593 C 368.678 113.907,368.607 117.320,368.389 117.408 C 368.171 117.496,368.173 117.524,368.396 117.538 C 368.888 117.568,368.894 117.336,368.834 101.444 L 368.775 85.889 368.721 101.593 M272.718 89.778 C 272.718 90.206,272.764 90.381,272.820 90.167 C 272.876 89.953,272.876 89.603,272.820 89.389 C 272.764 89.175,272.718 89.350,272.718 89.778 M273.616 95.111 C 273.616 95.661,273.659 95.886,273.712 95.611 C 273.765 95.336,273.765 94.886,273.712 94.611 C 273.659 94.336,273.616 94.561,273.616 95.111 M274.061 98.444 C 274.061 98.994,274.104 99.219,274.157 98.944 C 274.210 98.669,274.210 98.219,274.157 97.944 C 274.104 97.669,274.061 97.894,274.061 98.444 M285.105 100.167 L 283.667 101.667 285.167 100.229 C 285.992 99.438,286.667 98.763,286.667 98.729 C 286.667 98.565,286.440 98.773,285.105 100.167 M274.278 100.556 C 274.281 101.044,274.326 101.218,274.379 100.942 C 274.433 100.665,274.431 100.265,274.375 100.053 C 274.319 99.841,274.276 100.067,274.278 100.556 M77.284 100.607 C 77.806 100.654,78.606 100.654,79.061 100.606 C 79.517 100.558,79.089 100.520,78.111 100.521 C 77.133 100.521,76.761 100.561,77.284 100.607 M233.175 102.556 C 233.176 103.167,233.219 103.390,233.271 103.053 C 233.322 102.715,233.320 102.215,233.268 101.941 C 233.215 101.668,233.173 101.944,233.175 102.556 M274.496 102.222 C 274.496 102.650,274.542 102.825,274.598 102.611 C 274.654 102.397,274.654 102.047,274.598 101.833 C 274.542 101.619,274.496 101.794,274.496 102.222 M66.667 103.667 C 66.127 104.217,65.735 104.667,65.796 104.667 C 65.857 104.667,66.349 104.217,66.889 103.667 C 67.429 103.117,67.820 102.667,67.759 102.667 C 67.698 102.667,67.206 103.117,66.667 103.667 M92.000 104.736 C 92.000 104.774,92.325 105.099,92.722 105.458 L 93.444 106.111 92.792 105.389 C 92.183 104.716,92.000 104.565,92.000 104.736 M233.389 105.444 C 233.392 105.933,233.437 106.107,233.491 105.831 C 233.544 105.554,233.542 105.154,233.486 104.942 C 233.430 104.729,233.387 104.956,233.389 105.444 M274.723 105.444 C 274.725 105.933,274.771 106.107,274.824 105.831 C 274.877 105.554,274.875 105.154,274.819 104.942 C 274.764 104.729,274.720 104.956,274.723 105.444 M337.063 105.942 C 337.709 105.987,338.709 105.986,339.285 105.941 C 339.862 105.895,339.333 105.858,338.111 105.859 C 336.889 105.860,336.417 105.897,337.063 105.942 M342.500 106.153 C 342.714 106.209,343.064 106.209,343.278 106.153 C 343.492 106.097,343.317 106.052,342.889 106.052 C 342.461 106.052,342.286 106.097,342.500 106.153 M233.624 107.889 C 233.626 108.622,233.667 108.895,233.717 108.496 C 233.766 108.097,233.765 107.497,233.714 107.163 C 233.664 106.829,233.623 107.156,233.624 107.889 M274.955 109.111 C 274.955 109.783,274.997 110.058,275.048 109.722 C 275.099 109.386,275.099 108.836,275.048 108.500 C 274.997 108.164,274.955 108.439,274.955 109.111 M233.852 114.667 C 233.852 115.583,233.892 115.958,233.940 115.500 C 233.988 115.042,233.988 114.292,233.940 113.833 C 233.892 113.375,233.852 113.750,233.852 114.667 M313.774 115.722 L 311.444 118.111 313.833 115.782 C 316.052 113.618,316.323 113.333,316.163 113.333 C 316.130 113.333,315.055 114.408,313.774 115.722 M233.627 122.000 C 233.627 122.794,233.667 123.119,233.716 122.722 C 233.766 122.325,233.766 121.675,233.716 121.278 C 233.667 120.881,233.627 121.206,233.627 122.000 M233.397 124.556 C 233.399 125.167,233.442 125.390,233.493 125.053 C 233.544 124.715,233.543 124.215,233.490 123.941 C 233.437 123.668,233.395 123.944,233.397 124.556 M101.385 124.667 C 101.385 125.094,101.431 125.269,101.487 125.056 C 101.542 124.842,101.542 124.492,101.487 124.278 C 101.431 124.064,101.385 124.239,101.385 124.667 M101.627 126.889 C 101.627 127.683,101.667 128.008,101.716 127.611 C 101.766 127.214,101.766 126.564,101.716 126.167 C 101.667 125.769,101.627 126.094,101.627 126.889 M233.180 127.889 C 233.181 128.622,233.223 128.895,233.272 128.496 C 233.322 128.097,233.321 127.497,233.270 127.163 C 233.219 126.829,233.179 127.156,233.180 127.889 M101.869 132.444 C 101.869 134.583,101.903 135.458,101.943 134.389 C 101.984 133.319,101.984 131.569,101.943 130.500 C 101.903 129.431,101.869 130.306,101.869 132.444 M232.274 134.889 C 232.274 135.317,232.320 135.492,232.375 135.278 C 232.431 135.064,232.431 134.714,232.375 134.500 C 232.320 134.286,232.274 134.461,232.274 134.889 M101.632 138.333 C 101.633 139.311,101.672 139.683,101.719 139.161 C 101.765 138.638,101.765 137.838,101.717 137.383 C 101.669 136.928,101.631 137.356,101.632 138.333 M302.940 137.778 C 302.940 138.206,302.986 138.381,303.042 138.167 C 303.098 137.953,303.098 137.603,303.042 137.389 C 302.986 137.175,302.940 137.350,302.940 137.778 M101.385 140.889 C 101.385 141.317,101.431 141.492,101.487 141.278 C 101.542 141.064,101.542 140.714,101.487 140.500 C 101.431 140.286,101.385 140.461,101.385 140.889 M302.362 142.196 C 302.277 143.221,302.251 144.103,302.305 144.157 C 302.444 144.296,302.736 140.987,302.617 140.629 C 302.562 140.466,302.448 141.172,302.362 142.196 M302.064 146.111 C 302.065 146.722,302.108 146.946,302.159 146.608 C 302.211 146.270,302.209 145.770,302.156 145.497 C 302.104 145.224,302.062 145.500,302.064 146.111 M301.847 149.667 C 301.848 150.400,301.889 150.673,301.939 150.274 C 301.988 149.874,301.987 149.274,301.937 148.940 C 301.886 148.607,301.845 148.933,301.847 149.667 M226.155 154.336 C 225.951 154.762,225.831 155.111,225.887 155.111 C 226.039 155.111,226.713 153.750,226.612 153.649 C 226.564 153.601,226.358 153.910,226.155 154.336 M301.647 158.111 C 301.648 160.311,301.681 161.181,301.721 160.044 C 301.762 158.908,301.761 157.108,301.721 156.044 C 301.680 154.981,301.647 155.911,301.647 158.111 M97.378 156.560 C 97.112 157.108,96.941 157.556,96.998 157.556 C 97.149 157.556,98.047 155.751,97.946 155.650 C 97.900 155.603,97.644 156.013,97.378 156.560 M130.521 157.454 C 130.449 157.643,130.452 157.859,130.528 157.936 C 130.604 158.012,130.691 157.932,130.722 157.759 C 130.752 157.586,130.827 184.144,130.888 216.778 L 131.000 276.111 157.500 276.168 C 172.075 276.199,184.000 276.140,184.000 276.037 C 184.000 275.933,183.745 275.733,183.434 275.591 C 182.648 275.233,182.439 275.282,183.111 275.667 C 183.595 275.943,180.281 275.985,157.389 275.992 L 131.111 276.000 131.111 216.556 C 131.111 159.624,131.075 156.011,130.521 157.454 M328.125 157.755 C 328.057 157.866,328.315 158.066,328.700 158.201 C 329.649 158.531,329.817 158.477,329.000 158.103 C 328.429 157.841,331.217 157.796,348.499 157.788 L 368.665 157.778 368.723 193.778 L 368.780 229.778 368.779 193.722 L 368.778 157.667 348.514 157.610 C 336.548 157.576,328.199 157.636,328.125 157.755 M265.645 165.145 C 265.550 165.299,265.584 165.342,265.730 165.252 C 265.884 165.156,266.004 165.406,266.060 165.940 L 266.148 166.778 266.185 165.833 C 266.221 164.923,265.976 164.611,265.645 165.145 M301.847 166.556 C 301.848 167.289,301.889 167.562,301.939 167.163 C 301.988 166.763,301.987 166.163,301.937 165.829 C 301.886 165.495,301.845 165.822,301.847 166.556 M75.389 166.820 C 75.603 166.876,75.953 166.876,76.167 166.820 C 76.381 166.764,76.206 166.718,75.778 166.718 C 75.350 166.718,75.175 166.764,75.389 166.820 M83.389 166.820 C 83.603 166.876,83.953 166.876,84.167 166.820 C 84.381 166.764,84.206 166.718,83.778 166.718 C 83.350 166.718,83.175 166.764,83.389 166.820 M78.833 167.052 C 79.353 167.098,80.203 167.098,80.722 167.052 C 81.242 167.005,80.817 166.967,79.778 166.967 C 78.739 166.967,78.314 167.005,78.833 167.052 M266.286 167.889 C 266.287 168.500,266.331 168.724,266.382 168.386 C 266.433 168.048,266.431 167.548,266.379 167.275 C 266.326 167.001,266.284 167.278,266.286 167.889 M338.136 168.778 C 338.318 169.595,338.446 169.772,338.441 169.204 C 338.439 168.969,338.336 168.628,338.212 168.444 C 338.047 168.201,338.027 168.291,338.136 168.778 M302.061 170.000 C 302.061 170.550,302.104 170.775,302.157 170.500 C 302.210 170.225,302.210 169.775,302.157 169.500 C 302.104 169.225,302.061 169.450,302.061 170.000 M266.505 171.111 C 266.505 171.661,266.548 171.886,266.601 171.611 C 266.654 171.336,266.654 170.886,266.601 170.611 C 266.548 170.336,266.505 170.561,266.505 171.111 M121.878 172.278 L 121.000 173.222 121.944 172.344 C 122.823 171.527,122.991 171.333,122.823 171.333 C 122.787 171.333,122.362 171.758,121.878 172.278 M302.278 172.556 C 302.281 173.044,302.326 173.218,302.379 172.942 C 302.433 172.665,302.431 172.265,302.375 172.053 C 302.319 171.841,302.276 172.067,302.278 172.556 M195.947 172.379 C 196.223 172.433,196.623 172.431,196.836 172.375 C 197.048 172.319,196.822 172.276,196.333 172.278 C 195.844 172.281,195.671 172.326,195.947 172.379 M201.833 172.375 C 202.047 172.431,202.397 172.431,202.611 172.375 C 202.825 172.320,202.650 172.274,202.222 172.274 C 201.794 172.274,201.619 172.320,201.833 172.375 M200.278 172.598 C 200.492 172.654,200.842 172.654,201.056 172.598 C 201.269 172.542,201.094 172.496,200.667 172.496 C 200.239 172.496,200.064 172.542,200.278 172.598 M338.940 173.111 C 338.940 173.539,338.986 173.714,339.042 173.500 C 339.098 173.286,339.098 172.936,339.042 172.722 C 338.986 172.508,338.940 172.683,338.940 173.111 M64.370 173.259 C 64.289 173.341,64.224 173.516,64.226 173.648 C 64.227 173.781,64.320 173.745,64.431 173.570 C 64.606 173.293,64.686 173.293,65.039 173.570 C 65.410 173.862,65.419 173.856,65.139 173.500 C 64.814 173.085,64.609 173.021,64.370 173.259 M302.508 174.556 C 302.510 175.167,302.553 175.390,302.604 175.053 C 302.655 174.715,302.654 174.215,302.601 173.941 C 302.548 173.668,302.506 173.944,302.508 174.556 M266.949 174.667 C 266.949 175.217,266.993 175.442,267.046 175.167 C 267.099 174.892,267.099 174.442,267.046 174.167 C 266.993 173.892,266.949 174.117,266.949 174.667 M118.767 175.389 L 117.889 176.333 118.833 175.455 C 119.353 174.972,119.778 174.547,119.778 174.510 C 119.778 174.342,119.584 174.511,118.767 175.389 M302.940 178.000 C 302.940 178.428,302.986 178.603,303.042 178.389 C 303.098 178.175,303.098 177.825,303.042 177.611 C 302.986 177.397,302.940 177.572,302.940 178.000 M172.944 218.944 L 172.999 260.111 173.056 219.056 C 173.087 196.475,173.187 178.000,173.277 178.000 C 173.368 178.000,177.893 182.425,183.332 187.833 L 193.222 197.667 183.334 187.722 C 177.896 182.253,173.321 177.778,173.168 177.778 C 172.945 177.778,172.900 186.056,172.944 218.944 M253.997 181.278 L 251.222 184.111 254.056 181.337 C 255.614 179.811,256.889 178.536,256.889 178.503 C 256.889 178.344,256.574 178.646,253.997 181.278 M92.278 186.598 C 92.492 186.654,92.842 186.654,93.056 186.598 C 93.269 186.542,93.094 186.496,92.667 186.496 C 92.239 186.496,92.064 186.542,92.278 186.598 M82.944 186.820 C 83.158 186.876,83.508 186.876,83.722 186.820 C 83.936 186.764,83.761 186.718,83.333 186.718 C 82.906 186.718,82.731 186.764,82.944 186.820 M86.174 187.053 C 86.820 187.098,87.820 187.098,88.396 187.052 C 88.973 187.006,88.444 186.969,87.222 186.970 C 86.000 186.971,85.528 187.008,86.174 187.053 M238.667 192.333 C 238.117 192.628,237.746 192.873,237.842 192.879 C 238.078 192.892,239.778 192.019,239.778 191.884 C 239.778 191.737,239.787 191.733,238.667 192.333 M213.280 199.713 C 213.557 199.766,213.957 199.764,214.169 199.708 C 214.382 199.653,214.156 199.609,213.667 199.612 C 213.178 199.614,213.004 199.660,213.280 199.713 M202.722 199.931 C 202.936 199.987,203.286 199.987,203.500 199.931 C 203.714 199.875,203.539 199.829,203.111 199.829 C 202.683 199.829,202.508 199.875,202.722 199.931 M211.389 199.931 C 211.603 199.987,211.953 199.987,212.167 199.931 C 212.381 199.875,212.206 199.829,211.778 199.829 C 211.350 199.829,211.175 199.875,211.389 199.931 M206.611 200.161 C 207.008 200.210,207.658 200.210,208.056 200.161 C 208.453 200.111,208.128 200.071,207.333 200.071 C 206.539 200.071,206.214 200.111,206.611 200.161 M312.111 202.000 C 312.588 202.489,313.029 202.889,313.090 202.889 C 313.151 202.889,312.811 202.489,312.333 202.000 C 311.856 201.511,311.415 201.111,311.354 201.111 C 311.293 201.111,311.634 201.511,312.111 202.000 M327.833 209.709 C 328.047 209.765,328.397 209.765,328.611 209.709 C 328.825 209.653,328.650 209.607,328.222 209.607 C 327.794 209.607,327.619 209.653,327.833 209.709 M330.389 209.942 C 331.031 209.986,332.081 209.986,332.722 209.942 C 333.364 209.897,332.839 209.860,331.556 209.860 C 330.272 209.860,329.747 209.897,330.389 209.942 M283.444 214.889 C 283.922 215.378,284.362 215.778,284.424 215.778 C 284.485 215.778,284.144 215.378,283.667 214.889 C 283.189 214.400,282.749 214.000,282.688 214.000 C 282.626 214.000,282.967 214.400,283.444 214.889 M64.505 215.556 C 64.505 216.106,64.548 216.331,64.601 216.056 C 64.654 215.781,64.654 215.331,64.601 215.056 C 64.548 214.781,64.505 215.006,64.505 215.556 M286.111 217.556 C 286.588 218.044,287.029 218.444,287.090 218.444 C 287.151 218.444,286.811 218.044,286.333 217.556 C 285.856 217.067,285.415 216.667,285.354 216.667 C 285.293 216.667,285.634 217.067,286.111 217.556 M69.556 228.111 C 70.219 228.783,70.813 229.333,70.874 229.333 C 70.935 229.333,70.442 228.783,69.778 228.111 C 69.114 227.439,68.521 226.889,68.460 226.889 C 68.399 226.889,68.892 227.439,69.556 228.111 M74.779 231.557 C 74.867 231.700,67.242 231.796,52.846 231.833 L 30.778 231.891 53.056 231.946 C 73.428 231.995,76.199 231.935,74.988 231.471 C 74.792 231.395,74.702 231.432,74.779 231.557 M359.389 231.487 C 359.603 231.542,359.953 231.542,360.167 231.487 C 360.381 231.431,360.206 231.385,359.778 231.385 C 359.350 231.385,359.175 231.431,359.389 231.487 M355.722 231.935 C 355.997 231.988,356.447 231.988,356.722 231.935 C 356.997 231.882,356.772 231.838,356.222 231.838 C 355.672 231.838,355.447 231.882,355.722 231.935 M353.833 232.153 C 354.047 232.209,354.397 232.209,354.611 232.153 C 354.825 232.097,354.650 232.052,354.222 232.052 C 353.794 232.052,353.619 232.097,353.833 232.153 M350.833 232.379 C 351.108 232.432,351.558 232.432,351.833 232.379 C 352.108 232.326,351.883 232.283,351.333 232.283 C 350.783 232.283,350.558 232.326,350.833 232.379 M347.392 232.604 C 347.730 232.655,348.230 232.654,348.503 232.601 C 348.776 232.548,348.500 232.506,347.889 232.508 C 347.278 232.510,347.054 232.553,347.392 232.604 M324.169 232.824 C 324.446 232.877,324.846 232.875,325.058 232.819 C 325.271 232.764,325.044 232.720,324.556 232.723 C 324.067 232.725,323.893 232.771,324.169 232.824 M341.939 232.827 C 342.334 232.876,343.034 232.877,343.495 232.829 C 343.956 232.781,343.633 232.741,342.778 232.740 C 341.922 232.739,341.545 232.778,341.939 232.827 M328.000 233.129 C 329.446 233.282,337.197 233.365,336.778 233.223 C 336.656 233.182,334.306 233.109,331.556 233.062 C 328.806 233.015,327.206 233.045,328.000 233.129 M337.722 233.050 C 338.119 233.099,338.769 233.099,339.167 233.050 C 339.564 233.000,339.239 232.960,338.444 232.960 C 337.650 232.960,337.325 233.000,337.722 233.050 M386.295 243.000 C 386.296 243.856,386.336 244.178,386.384 243.717 C 386.433 243.256,386.432 242.556,386.383 242.162 C 386.334 241.767,386.294 242.144,386.295 243.000 M13.408 244.667 C 13.408 245.583,13.447 245.958,13.495 245.500 C 13.543 245.042,13.543 244.292,13.495 243.833 C 13.447 243.375,13.408 243.750,13.408 244.667 M386.064 245.667 C 386.065 246.278,386.108 246.501,386.159 246.164 C 386.211 245.826,386.209 245.326,386.156 245.053 C 386.104 244.779,386.062 245.056,386.064 245.667 M385.829 248.000 C 385.829 248.428,385.875 248.603,385.931 248.389 C 385.987 248.175,385.987 247.825,385.931 247.611 C 385.875 247.397,385.829 247.572,385.829 248.000 M19.333 267.196 C 19.333 267.435,19.995 268.667,20.123 268.667 C 20.184 268.667,20.068 268.342,19.866 267.944 C 19.454 267.133,19.333 266.964,19.333 267.196 M370.319 281.833 L 369.667 282.556 370.389 281.903 C 371.062 281.294,371.213 281.111,371.042 281.111 C 371.003 281.111,370.678 281.436,370.319 281.833 M30.111 282.889 C 30.837 283.622,31.481 284.222,31.542 284.222 C 31.603 284.222,31.059 283.622,30.333 282.889 C 29.608 282.156,28.964 281.556,28.903 281.556 C 28.842 281.556,29.385 282.156,30.111 282.889 M32.889 285.667 C 33.553 286.339,34.146 286.889,34.207 286.889 C 34.268 286.889,33.775 286.339,33.111 285.667 C 32.447 284.994,31.854 284.444,31.793 284.444 C 31.732 284.444,32.225 284.994,32.889 285.667 M365.430 286.722 L 364.778 287.444 365.500 286.792 C 366.173 286.183,366.324 286.000,366.153 286.000 C 366.114 286.000,365.789 286.325,365.430 286.722 M66.944 302.153 C 67.158 302.209,67.508 302.209,67.722 302.153 C 67.936 302.097,67.761 302.052,67.333 302.052 C 66.906 302.052,66.731 302.097,66.944 302.153 M69.503 302.379 C 69.779 302.433,70.179 302.431,70.391 302.375 C 70.604 302.319,70.378 302.276,69.889 302.278 C 69.400 302.281,69.226 302.326,69.503 302.379 M329.500 302.379 C 329.775 302.432,330.225 302.432,330.500 302.379 C 330.775 302.326,330.550 302.283,330.000 302.283 C 329.450 302.283,329.225 302.326,329.500 302.379 M71.392 302.604 C 71.730 302.655,72.230 302.654,72.503 302.601 C 72.776 302.548,72.500 302.506,71.889 302.508 C 71.278 302.510,71.054 302.553,71.392 302.604 M327.170 302.604 C 327.508 302.655,328.008 302.654,328.281 302.601 C 328.554 302.548,328.278 302.506,327.667 302.508 C 327.056 302.510,326.832 302.553,327.170 302.604 " stroke="none" fill="#84bcd4" fill-rule="evenodd"></path></g></svg>